<svg xmlns="http://www.w3.org/2000/svg" viewBox="0 0 64 64" width="64" height="64">
  <rect width="64" height="64" rx="14" fill="#0b0c0e"/>
  <rect x="3" y="3" width="58" height="58" rx="11" fill="none" stroke="#ff5a1f" stroke-width="2" opacity="0.3"/>
  
  <!-- Orange Dither Matrix Grid Logo -->
  <!-- Row 1 -->
  <rect x="14" y="14" width="6" height="6" rx="1" fill="#ff5a1f"/>
  <rect x="22" y="14" width="6" height="6" rx="1" fill="#ff5a1f"/>
  <rect x="30" y="14" width="6" height="6" rx="1" fill="#ff5a1f"/>
  <rect x="38" y="14" width="6" height="6" rx="1" fill="#ff5a1f"/>
  
  <!-- Row 2 -->
  <rect x="14" y="22" width="6" height="6" rx="1" fill="#ff5a1f"/>
  <rect x="44" y="22" width="6" height="6" rx="1" fill="#ff7a45"/>
  
  <!-- Row 3 -->
  <rect x="14" y="30" width="6" height="6" rx="1" fill="#ff5a1f"/>
  <rect x="26" y="30" width="6" height="6" rx="1" fill="#ff5a1f" opacity="0.4"/>
  <rect x="44" y="30" width="6" height="6" rx="1" fill="#ff5a1f"/>
  
  <!-- Row 4 -->
  <rect x="14" y="38" width="6" height="6" rx="1" fill="#ff5a1f"/>
  <rect x="44" y="38" width="6" height="6" rx="1" fill="#ff7a45"/>
  
  <!-- Row 5 -->
  <rect x="14" y="46" width="6" height="6" rx="1" fill="#ff5a1f"/>
  <rect x="22" y="46" width="6" height="6" rx="1" fill="#ff5a1f"/>
  <rect x="30" y="46" width="6" height="6" rx="1" fill="#ff5a1f"/>
  <rect x="38" y="46" width="6" height="6" rx="1" fill="#ff5a1f"/>

  <!-- Dither Accent Dots -->
  <circle cx="29" cy="25" r="2" fill="#ff9d3d" opacity="0.8"/>
  <circle cx="37" cy="33" r="2" fill="#ff5a1f" opacity="0.6"/>
  <circle cx="29" cy="41" r="2" fill="#ff9d3d" opacity="0.8"/>
</svg>
